<?xml version="1.0" encoding="UTF-8" standalone="no"?>
<!-- Created with Inkscape (http://www.inkscape.org/) -->

<svg
   width="297mm"
   height="210mm"
   viewBox="0 0 1122.5197 793.70081"
   version="1.1"
   id="svg1"
   inkscape:version="1.3 (0e150ed6c4, 2023-07-21)"
   sodipodi:docname="POOTIS_LOGO.svg"
   xmlns:inkscape="http://www.inkscape.org/namespaces/inkscape"
   xmlns:sodipodi="http://sodipodi.sourceforge.net/DTD/sodipodi-0.dtd"
   xmlns="http://www.w3.org/2000/svg"
   xmlns:svg="http://www.w3.org/2000/svg">
  <sodipodi:namedview
     id="namedview1"
     pagecolor="#ffffff"
     bordercolor="#000000"
     borderopacity="0.25"
     inkscape:showpageshadow="2"
     inkscape:pageopacity="0.0"
     inkscape:pagecheckerboard="0"
     inkscape:deskcolor="#d1d1d1"
     inkscape:document-units="mm"
     inkscape:zoom="0.5"
     inkscape:cx="934"
     inkscape:cy="515"
     inkscape:window-width="1920"
     inkscape:window-height="1017"
     inkscape:window-x="-8"
     inkscape:window-y="-8"
     inkscape:window-maximized="1"
     inkscape:current-layer="layer1" />
  <defs
     id="defs1" />
  <g
     inkscape:label="Vrstva 1"
     inkscape:groupmode="layer"
     id="layer1">
    <path
       id="path1"
       style="font-size:192px;font-family:'Agency FB';-inkscape-font-specification:'Agency FB';stroke-width:2.65928"
       d="M 15.028121,201.76764 V 591.93317 H 49.681799 V 437.1135 H 141.6761 c 8.14402,0 14.79222,-2.57618 19.94456,-7.72852 5.31855,-5.31855 7.97783,-12.04987 7.97783,-20.19388 V 229.44073 c 0,-8.14402 -2.65928,-14.79222 -7.97783,-19.94456 -5.15234,-5.15235 -11.80054,-7.72853 -19.94456,-7.72853 z m 237.091009,0 c -8.14403,0 -14.79223,2.57618 -19.94457,7.72853 -5.15235,5.15234 -7.72852,11.80054 -7.72852,19.94456 v 334.81936 c 0,8.14403 2.57617,14.79222 7.72852,19.94456 5.15234,5.15235 11.80054,7.72852 19.94457,7.72852 h 109.19648 c 8.14403,0 14.79222,-2.57617 19.94456,-7.72852 5.31855,-5.15234 7.97783,-11.80053 7.97783,-19.94456 V 229.44073 c 0,-8.14402 -2.65928,-14.79222 -7.97783,-19.94456 -5.15234,-5.15235 -11.80053,-7.72853 -19.94456,-7.72853 z m 227.11871,0 c -8.14403,0 -14.79222,2.57618 -19.94456,7.72853 -5.15235,5.15234 -7.72852,11.80054 -7.72852,19.94456 v 334.81936 c 0,8.14403 2.57617,14.79222 7.72852,19.94456 5.15234,5.15235 11.80053,7.72852 19.94456,7.72852 h 109.19648 c 8.14403,0 14.79222,-2.57617 19.94456,-7.72852 5.31855,-5.15234 7.97783,-11.80053 7.97783,-19.94456 V 229.44073 c 0,-8.14402 -2.65928,-14.79222 -7.97783,-19.94456 -5.15234,-5.15235 -11.80053,-7.72853 -19.94456,-7.72853 z m 178.00522,0 v 30.66477 h 60.83092 v 359.50076 h 34.65367 V 232.43241 h 60.33231 v -30.66477 z m 198.4484,0 v 390.16553 h 34.65368 V 201.76764 Z m 126.14939,0 c -8.14403,0 -14.87535,2.57618 -20.19387,7.72853 -5.15235,5.15234 -7.72852,11.80054 -7.72852,19.94456 v 79.03033 c 0,10.80329 3.7396,20.69249 11.21881,29.66754 l 107.70063,130.13828 v 92.99152 h -84.26577 v -95.9832 h -34.65367 v 98.97489 c 0,8.14403 2.57617,14.79222 7.72852,19.94456 5.31852,5.15235 12.04984,7.72852 20.19387,7.72852 h 98.22695 c 8.144,0 14.7091,-2.57617 19.6953,-7.72852 5.1523,-5.15234 7.7285,-11.80053 7.7285,-19.94456 v -90.24915 c 0,-10.8033 -3.5735,-20.5263 -10.7202,-29.16892 L 988.57213,314.70373 v -82.27132 h 84.26577 v 87.75608 h 34.6537 v -90.74776 c 0,-8.14402 -2.5762,-14.79222 -7.7285,-19.94456 -4.9862,-5.15235 -11.5513,-7.72853 -19.6953,-7.72853 z M 49.681799,232.43241 H 134.94481 V 406.19942 H 49.681799 Z m 209.417931,0 h 95.48459 V 561.2684 h -95.48459 z m 227.11871,0 h 95.48459 V 561.2684 h -95.48459 z" />
    <rect
       style="fill:#000000"
       id="rect5"
       width="1122.5197"
       height="12.020819"
       x="0"
       y="156.2706"
       ry="6.0104094"
       rx="0" />
    <rect
       style="fill:#000000"
       id="rect6"
       width="1122.5197"
       height="12.020819"
       x="6.1035156e-05"
       y="625.40942"
       ry="6.0104094"
       rx="0" />
  </g>
</svg>
